<?xml version="1.0" encoding="iso-8859-1"?>
<!-- Generator: Adobe Illustrator 23.0.3, SVG Export Plug-In . SVG Version: 6.00 Build 0)  -->
<svg version="1.1" id="Layer_1" xmlns="http://www.w3.org/2000/svg" xmlns:xlink="http://www.w3.org/1999/xlink" x="0px" y="0px"
	 viewBox="0 0 300 300" style="enable-background:new 0 0 300 300;" xml:space="preserve">
<g>
	<path style="fill-rule:evenodd;clip-rule:evenodd;fill:none;stroke:#FF031C;stroke-miterlimit:10;" d="M176.5,210.5v5
		c0,3.3-2.7,6-6,6h-63c-3.3,0-6-2.7-6-6v-117c0-3.3,2.7-6,6-6h4v112c0,3.3,2.7,6,6,6H176.5z"/>
	<path style="fill-rule:evenodd;clip-rule:evenodd;fill:none;stroke:#FF031C;stroke-miterlimit:10;" d="M194.5,109.5v95
		c0,3.3-2.7,6-6,6h-71c-3.3,0-6-2.7-6-6v-135c0-3.3,2.7-6,6-6h49v24c0,12.1,9.9,22,22,22H194.5z"/>
	<path style="fill:none;stroke:#FF031C;stroke-miterlimit:10;" d="M194.5,100.71v8.79h-6c-12.1,0-22-9.9-22-22v-24h3.77
		L194.5,100.71z"/>
	<line style="fill:none;stroke:#FF031C;stroke-miterlimit:10;" x1="122.5" y1="118.5" x2="183.5" y2="118.5"/>
	<line style="fill:none;stroke:#FF031C;stroke-miterlimit:10;" x1="123" y1="129.5" x2="184" y2="129.5"/>
	<line style="fill:none;stroke:#FF031C;stroke-miterlimit:10;" x1="123" y1="139.5" x2="184" y2="139.5"/>
	<line style="fill:none;stroke:#FF031C;stroke-miterlimit:10;" x1="123" y1="149.5" x2="184" y2="149.5"/>
	<line style="fill:none;stroke:#FF031C;stroke-miterlimit:10;" x1="123" y1="159.5" x2="184" y2="159.5"/>
	<line style="fill:none;stroke:#FF031C;stroke-miterlimit:10;" x1="123" y1="169.5" x2="184" y2="169.5"/>
	<line style="fill:none;stroke:#FF031C;stroke-miterlimit:10;" x1="123" y1="179.5" x2="184" y2="179.5"/>
	<line style="fill:none;stroke:#FF031C;stroke-miterlimit:10;" x1="123" y1="189.5" x2="184" y2="189.5"/>
</g>
</svg>
