<?xml version="1.0" encoding="utf-8"?>
<!-- Generator: Adobe Illustrator 23.0.3, SVG Export Plug-In . SVG Version: 6.00 Build 0)  -->
<svg version="1.1" id="Layer_1" xmlns="http://www.w3.org/2000/svg" xmlns:xlink="http://www.w3.org/1999/xlink" x="0px" y="0px"
	 viewBox="0 0 89 83" style="enable-background:new 0 0 89 83;" xml:space="preserve">
<style type="text/css">
	.st0{fill:#673816;}
	.st1{fill:#FCCF0C;}
	.st2{fill:#FBE9A7;}
</style>
<g>
	<path class="st0" d="M80.38,21.31l-7.71-4.45v11.83l7.71-4.45C81.5,23.59,81.5,21.96,80.38,21.31z"/>
	<path class="st1" d="M68.97,36.07c1.08,1.5,1.68,3.82,1.68,7.32c0,16.89-13.69,30.58-30.58,30.58S9.49,60.28,9.49,43.39
		c0-3.71,0.66-6.11,1.87-7.59c-0.99-5.69,1.51-14.06,5.83-15.99c1.67-0.74,3.67-0.1,5.08,1.05c1.42,1.15,2.4,2.72,3.5,4.17
		c4.89,6.45,12.62,10.65,20.68,11.34c0.9-0.11,1.79-0.25,2.66-0.39c-3.61-2.92-5.91-7.37-5.91-12.37c0-8.78,7.12-15.9,15.9-15.9
		c8.78,0,15.9,7.12,15.9,15.9C75,28.66,72.64,33.16,68.97,36.07z"/>
	<circle class="st0" cx="65.03" cy="22.77" r="2.52"/>
	<path class="st2" d="M19.16,36.9c0,0,4.26,20.9,18.97,20.52s10.45-16.58,10.45-16.58s-3.91,6.13-12.02,4.19
		C28.45,43.1,19.16,36.9,19.16,36.9z"/>
</g>
</svg>
