<?xml version="1.0" encoding="iso-8859-1"?>
<!-- Generator: Adobe Illustrator 23.0.3, SVG Export Plug-In . SVG Version: 6.00 Build 0)  -->
<svg version="1.1" id="Layer_1" xmlns="http://www.w3.org/2000/svg" xmlns:xlink="http://www.w3.org/1999/xlink" x="0px" y="0px"
	 viewBox="0 0 300 300" style="enable-background:new 0 0 300 300;" xml:space="preserve">
<g>
	<circle style="fill:#F9FF00;" cx="150" cy="150" r="51"/>
</g>
<path style="fill:#F9FF00;" d="M153,19h-6c-3.3,0-6,2.7-6,6v56c0,3.3,2.7,6,6,6h6c3.3,0,6-2.7,6-6V25C159,21.7,156.3,19,153,19z"/>
<path style="fill:#F9FF00;" d="M75.427,42.255l-4.854,3.527c-2.67,1.94-3.267,5.711-1.327,8.381l32.916,45.305
	c1.94,2.67,5.711,3.267,8.381,1.327l4.854-3.527c2.67-1.94,3.267-5.711,1.327-8.381L83.808,43.583
	C81.868,40.913,78.097,40.316,75.427,42.255z"/>
<path style="fill:#F9FF00;" d="M26.339,106.666l-1.854,5.706c-1.02,3.138,0.714,6.541,3.852,7.56l53.259,17.305
	c3.138,1.02,6.541-0.714,7.56-3.852l1.854-5.706c1.02-3.138-0.714-6.541-3.852-7.56l-53.259-17.305
	C30.761,101.794,27.358,103.527,26.339,106.666z"/>
<path style="fill:#F9FF00;" d="M24.485,187.628l1.854,5.706c1.02,3.138,4.422,4.872,7.56,3.852l53.259-17.305
	c3.138-1.02,4.872-4.422,3.852-7.56l-1.854-5.706c-1.02-3.138-4.422-4.872-7.56-3.852l-53.259,17.305
	C25.198,181.087,23.465,184.49,24.485,187.628z"/>
<path style="fill:#F9FF00;" d="M70.573,254.218l4.854,3.527c2.67,1.94,6.441,1.342,8.381-1.327l32.916-45.305
	c1.94-2.67,1.342-6.441-1.327-8.381l-4.854-3.527c-2.67-1.94-6.441-1.342-8.381,1.327l-32.916,45.305
	C67.306,248.507,67.903,252.278,70.573,254.218z"/>
<path style="fill:#F9FF00;" d="M147,281h6c3.3,0,6-2.7,6-6v-56c0-3.3-2.7-6-6-6h-6c-3.3,0-6,2.7-6,6v56C141,278.3,143.7,281,147,281
	z"/>
<path style="fill:#F9FF00;" d="M224.573,257.745l4.854-3.527c2.67-1.94,3.267-5.711,1.327-8.381l-32.916-45.305
	c-1.94-2.67-5.711-3.267-8.381-1.327l-4.854,3.527c-2.67,1.94-3.267,5.711-1.327,8.381l32.916,45.305
	C218.132,259.087,221.903,259.684,224.573,257.745z"/>
<path style="fill:#F9FF00;" d="M273.661,193.334l1.854-5.706c1.02-3.138-0.714-6.541-3.852-7.56l-53.259-17.305
	c-3.138-1.02-6.541,0.714-7.56,3.852l-1.854,5.706c-1.02,3.138,0.714,6.541,3.852,7.56l53.259,17.305
	C269.239,198.206,272.642,196.473,273.661,193.334z"/>
<path style="fill:#F9FF00;" d="M275.515,112.372l-1.854-5.706c-1.02-3.138-4.422-4.872-7.56-3.852l-53.259,17.305
	c-3.138,1.02-4.872,4.422-3.852,7.56l1.854,5.706c1.02,3.138,4.422,4.872,7.56,3.852l53.259-17.305
	C274.802,118.913,276.535,115.51,275.515,112.372z"/>
<path style="fill:#F9FF00;" d="M229.427,45.782l-4.854-3.527c-2.67-1.94-6.441-1.342-8.381,1.327l-32.916,45.305
	c-1.94,2.67-1.342,6.441,1.327,8.381l4.854,3.527c2.67,1.94,6.441,1.342,8.381-1.327l32.916-45.305
	C232.694,51.493,232.097,47.722,229.427,45.782z"/>
</svg>
