<?xml version="1.0" encoding="utf-8"?>
<!-- Generator: Adobe Illustrator 23.0.3, SVG Export Plug-In . SVG Version: 6.00 Build 0)  -->
<svg version="1.1" id="Layer_1" xmlns="http://www.w3.org/2000/svg" xmlns:xlink="http://www.w3.org/1999/xlink" x="0px" y="0px"
	 viewBox="0 0 439 316" style="enable-background:new 0 0 439 316;" xml:space="preserve">
<style type="text/css">
	.st0{fill:#FFA52B;}
	.st1{fill:#74FF45;}
	.st2{fill:#733400;}
	.st3{fill:#27B128;}
	.st4{fill:#FF7240;}
	.st5{fill:#404040;}
	.st6{fill:#949494;}
	.st7{fill:#FFFFFF;}
	.st8{font-family:'Impact';}
	.st9{font-size:48px;}
</style>
<rect x="9" y="12" class="st0" width="262.19" height="199"/>
<path class="st1" d="M391.84,38H277.9c-3.81,0-6.9,3.09-6.9,6.9V204.1c0,3.81,3.09,6.9,6.9,6.9h95.15c3.6,0,6.59,3.23,6.88-0.36l0,0
	c0.28-3.59,3.28-12.36,6.88-12.36h30.25c3.83,0,6.93-3.12,6.9-6.95L423,76.29C423,52.39,409.04,38,391.84,38z M300.61,130.09
	l-3.19-56.61c-0.23-4.13,3.19-7.5,7.32-7.27c58.95,3.29,64.03,44.28,63.73,60.37c-0.07,3.61-2.88,6.56-6.49,6.78l-54.08,3.23
	C304.1,136.82,300.83,133.9,300.61,130.09z"/>
<line class="st1" x1="271" y1="281" x2="271" y2="213"/>
<path class="st2" d="M372.68,139h-63.62c-7.76,0-14.06-6.29-14.06-14.06V71.81c0-8.37,7.27-14.9,15.58-13.98
	c53,5.89,70.18,41.74,75.75,63.78C388.57,130.45,381.79,139,372.68,139z"/>
<line class="st1" x1="271" y1="118" x2="271" y2="98"/>
<rect x="288.14" y="143.11" class="st3" width="26.86" height="10.53"/>
<path class="st4" d="M425.94,211H12.06c-1.69,0-3.06,1.37-3.06,3.06v24.88c0,1.69,1.37,3.06,3.06,3.06h413.88
	c1.69,0,3.06-1.37,3.06-3.06v-24.88C429,212.37,427.63,211,425.94,211z"/>
<circle class="st5" cx="101" cy="255" r="47"/>
<circle class="st6" cx="101" cy="255.49" r="36.12"/>
<circle class="st5" cx="309" cy="255" r="47"/>
<circle class="st6" cx="309" cy="255.49" r="36.12"/>
<text transform="matrix(1 0 0 1 72.4023 97.958)"><tspan x="0" y="0" class="st7 st8 st9">QUICK</tspan><tspan x="-26.78" y="57.6" class="st7 st8 st9">DELIVERY</tspan></text>
</svg>
