<?xml version="1.0" encoding="utf-8"?>
<!-- Generator: Adobe Illustrator 23.0.3, SVG Export Plug-In . SVG Version: 6.00 Build 0)  -->
<svg version="1.1" id="Layer_1" xmlns="http://www.w3.org/2000/svg" xmlns:xlink="http://www.w3.org/1999/xlink" x="0px" y="0px"
	 viewBox="0 0 1125 2436" style="enable-background:new 0 0 1125 2436;" xml:space="preserve">
<style type="text/css">
	.st0{stroke:#000000;stroke-miterlimit:10;}
	.st1{fill:url(#SVGID_1_);stroke:#000000;stroke-miterlimit:10;}
	.st2{fill:#000D45;stroke:#000000;stroke-miterlimit:10;}
	<!-- 구름 -->
	.st3{fill:#FF0000;stroke:#000000;stroke-miterlimit:10;}
	<!-- 부스터 -->
	.st4{fill:#FFFF00;}
	<!-- 로켓노란부분 -->
	.st5{fill:none;}
	<!-- 글씨칸 -->
	.st6{
		fill:#FFFFFF;
	font-family:'MyriadPro-Regular';
	font-size:90px;
	}
	<!-- 글씨 -->
</style>
<rect x="-42.5" y="-19.5" class="st0" width="1189" height="2472"/>
<linearGradient id="SVGID_1_" gradientUnits="userSpaceOnUse" x1="588.111" y1="393.0489" x2="574.3524" y2="1512.9969">
	<stop  offset="0" style="stop-color:#FFFFFF"/>
	<stop  offset="1" style="stop-color:#000000"/>
</linearGradient>
<polygon class="st1" points="564.26,369 577.73,1410.5 596,2452 564.26,2452 529.63,2452 547.91,1410.5 "/>
<path class="st2" d="M1235.5,2328.5c0,96.65-72.31,175-161.5,175c-47.36,0-89.96-22.09-119.5-57.28c-6.77,3.38-14.42,5.28-22.5,5.28
	c-14.49,0-27.56-6.11-36.78-15.89c-14.55,4.49-29.88,6.89-45.72,6.89c-6.91,0-13.73-0.46-20.43-1.35
	c-30.12,45.17-77.85,74.35-131.57,74.35c-18.03,0-35.38-3.29-51.62-9.36c-27.72,48.93-83.53,82.36-147.88,82.36
	c-39.06,0-74.98-12.32-103.38-32.96c-51.03,41.77-117.04,66.96-189.12,66.96c-161.82,0-293-126.93-293-283.5
	c0-50.89,13.86-98.65,38.14-139.94c-36.62-32.03-60.14-81.75-60.14-137.56c0-96.65,70.52-175,157.5-175
	c85.17,0,154.56,75.13,157.4,169h0.1c142.21,0,260.76,98.04,287.4,228.07c1.7-0.05,3.39-0.07,5.1-0.07c13.2,0,26.04,1.41,38.35,4.07
	c16.26-84.12,82.24-147.07,161.15-147.07c4.37,0,8.69,0.19,12.97,0.58c18.31-28.45,43.49-51.05,72.84-64.78
	c-14.64-31.56-22.81-66.73-22.81-103.8c0-136.41,110.59-247,247-247s247,110.59,247,247c0,83.26-41.2,156.9-104.33,201.65
	C1200.96,2203.64,1235.5,2261.7,1235.5,2328.5z"/>
<path class="st3" d="M511.43,489.36l-49.95,64.1c0,0-6.46,13.78-12.93,41.35c-6.46,27.57-5.88,17.92-5.88,17.92l45.84-43.76
	l-11.46,108.2l64.64-94.08l15.28,137.15l33.5-127.5l38.49,59.27l-14.69-65.13l77.57,47.9l-27.03-53.41l38.49,18.26L632.2,489.36
	H511.43z"/>
<polygon class="st4" points="777,414.86 777,567.42 648.6,503.22 600.92,503.22 600.92,500.89 568,557.91 536.09,502.64 
	536.09,503.22 494.13,503.22 367,566.79 367,414.23 445.19,375.13 445.19,354.65 444.93,354.65 508.94,243.78 572.95,132.9 
	636.96,243.78 700.98,354.65 700.72,354.65 700.72,376.72 "/>
<rect x="352" y="1203.33" class="st5" width="441.67" height="222.22"/>
<text transform="matrix(1 0 0 1 461.6846 1267.2329)"><tspan x="0" y="0" class="st6">Brand </tspan><tspan x="-0.23" y="108" class="st6 st7 st8">Name</tspan></text>
</svg>
