<?xml version="1.0" encoding="utf-8"?>
<!-- Generator: Adobe Illustrator 23.0.3, SVG Export Plug-In . SVG Version: 6.00 Build 0)  -->
<svg version="1.1" id="Layer_1" xmlns="http://www.w3.org/2000/svg" xmlns:xlink="http://www.w3.org/1999/xlink" x="0px" y="0px"
	 viewBox="0 0 1392 936" style="enable-background:new 0 0 1392 936;" xml:space="preserve">
<style type="text/css">
	.st0{fill:#000D45;stroke:#000000;stroke-miterlimit:10;}
</style>
<path class="st0" d="M1357.5,624.5c0,96.65-72.31,175-161.5,175c-47.36,0-89.96-22.09-119.5-57.28c-6.77,3.38-14.42,5.28-22.5,5.28
	c-14.49,0-27.56-6.11-36.78-15.89c-14.55,4.49-29.88,6.89-45.72,6.89c-6.91,0-13.73-0.46-20.43-1.35
	c-30.12,45.17-77.85,74.35-131.57,74.35c-18.03,0-35.38-3.29-51.62-9.36C740.16,851.07,684.35,884.5,620,884.5
	c-39.06,0-74.98-12.32-103.38-32.96c-51.03,41.77-117.04,66.96-189.12,66.96c-161.82,0-293-126.93-293-283.5
	c0-50.89,13.86-98.65,38.14-139.94C36.02,463.03,12.5,413.31,12.5,357.5c0-96.65,70.52-175,157.5-175
	c85.17,0,154.56,75.13,157.4,169h0.1c142.21,0,260.76,98.04,287.4,228.07c1.7-0.05,3.39-0.07,5.1-0.07c13.2,0,26.04,1.41,38.35,4.07
	c16.26-84.12,82.24-147.07,161.15-147.07c4.37,0,8.69,0.19,12.97,0.58c18.31-28.45,43.49-51.05,72.84-64.78
	c-14.64-31.56-22.81-66.73-22.81-103.8c0-136.41,110.59-247,247-247s247,110.59,247,247c0,83.26-41.2,156.9-104.33,201.65
	C1322.96,499.64,1357.5,557.7,1357.5,624.5z"/>
</svg>
