<?xml version="1.0" encoding="iso-8859-1"?>
<!-- Generator: Adobe Illustrator 23.0.3, SVG Export Plug-In . SVG Version: 6.00 Build 0)  -->
<svg version="1.1" id="Layer_1" xmlns="http://www.w3.org/2000/svg" xmlns:xlink="http://www.w3.org/1999/xlink" x="0px" y="0px"
	 viewBox="0 0 300 300" style="enable-background:new 0 0 300 300;" xml:space="preserve">
<g>
	<path style="fill:#17824C;" d="M279,241h-30c-5.5,0-10-4.5-10-10V51c0-5.5,4.5-10,10-10h30c5.5,0,10,4.5,10,10v180
		C289,236.5,284.5,241,279,241z"/>
</g>
<g>
	<path style="fill:#17824C;" d="M203,241h-30c-5.5,0-10-4.5-10-10V101c0-5.5,4.5-10,10-10h30c5.5,0,10,4.5,10,10v130
		C213,236.5,208.5,241,203,241z"/>
</g>
<g>
	<path style="fill:#17824C;" d="M128,241H98c-5.5,0-10-4.5-10-10v-80c0-5.5,4.5-10,10-10h30c5.5,0,10,4.5,10,10v80
		C138,236.5,133.5,241,128,241z"/>
</g>
<g>
	<path style="fill:#00FC78;" d="M55,241H25c-5.5,0-10-4.5-10-10v-40c0-5.5,4.5-10,10-10h30c5.5,0,10,4.5,10,10v40
		C65,236.5,60.5,241,55,241z"/>
</g>
</svg>
