<?xml version="1.0" encoding="iso-8859-1"?>
<!-- Generator: Adobe Illustrator 23.0.3, SVG Export Plug-In . SVG Version: 6.00 Build 0)  -->
<svg version="1.1" id="Layer_1" xmlns="http://www.w3.org/2000/svg" xmlns:xlink="http://www.w3.org/1999/xlink" x="0px" y="0px"
	 viewBox="0 0 300 300" style="enable-background:new 0 0 300 300;" xml:space="preserve">
<g>
	<path style="fill:#FFFFFF;" d="M58,231.5c-11.855,0-21.5-9.645-21.5-21.5V96c0-10.668,8.105-19.864,18.603-21.304
		C54.039,77.337,53.5,80.126,53.5,83v57c0,12.406,10.093,22.5,22.5,22.5h146c12.406,0,22.5-10.094,22.5-22.5V83
		c0-2.915-0.554-5.743-1.647-8.417C253.934,75.528,262.5,84.784,262.5,96v114c0,11.855-9.645,21.5-21.5,21.5H58z"/>
	<path d="M243.615,75.165C254.045,76.456,262,85.318,262,96v114c0,11.579-9.421,21-21,21H58c-11.579,0-21-9.421-21-21V96
		c0-10.133,7.486-18.907,17.329-20.675C53.446,77.782,53,80.356,53,83v57c0,12.682,10.318,23,23,23h146c12.682,0,23-10.318,23-23V83
		C245,80.297,244.535,77.669,243.615,75.165 M242.07,74.03c1.24,2.74,1.93,5.78,1.93,8.97v57c0,12.1-9.9,22-22,22H76
		c-12.1,0-22-9.9-22-22V83c0-3.16,0.68-6.18,1.9-8.9C44.77,75.17,36,84.61,36,96v114c0,12.1,9.9,22,22,22h183c12.1,0,22-9.9,22-22
		V96C263,84.26,253.68,74.59,242.07,74.03L242.07,74.03z"/>
</g>
<g>
	<path style="fill:#FFFFFF;" d="M76,161.5c-11.855,0-21.5-9.645-21.5-21.5V83c0-2.926,0.585-5.761,1.739-8.43
		c0.556-0.047,1.135-0.07,1.761-0.07h183c0.249,0,0.492,0.005,0.738,0.015C242.907,77.2,243.5,80.053,243.5,83v57
		c0,11.855-9.645,21.5-21.5,21.5H76z"/>
	<path d="M241,75c0.136,0,0.27,0.002,0.404,0.005C242.463,77.54,243,80.227,243,83v57c0,11.579-9.421,21-21,21H76
		c-11.579,0-21-9.421-21-21V83c0-2.757,0.531-5.43,1.581-7.954C57.032,75.015,57.501,75,58,75H241 M241,74H58
		c-0.71,0-1.41,0.03-2.1,0.1C54.68,76.82,54,79.84,54,83v57c0,12.1,9.9,22,22,22h146c12.1,0,22-9.9,22-22V83
		c0-3.19-0.69-6.23-1.93-8.97C241.71,74.01,241.36,74,241,74L241,74z"/>
</g>
</svg>
