<?xml version="1.0" encoding="iso-8859-1"?>
<!-- Generator: Adobe Illustrator 23.0.3, SVG Export Plug-In . SVG Version: 6.00 Build 0)  -->
<svg version="1.1" id="Layer_1" xmlns="http://www.w3.org/2000/svg" xmlns:xlink="http://www.w3.org/1999/xlink" x="0px" y="0px"
	 viewBox="0 0 300 300" style="enable-background:new 0 0 300 300;" xml:space="preserve">
<g>
	<path style="fill:#FFFFFF;" d="M86.468,189.09l5.481-12.498l-0.098-0.206C87.637,167.494,85.5,157.944,85.5,148
		c0-36.668,29.832-66.5,66.5-66.5c36.668,0,66.5,29.832,66.5,66.5c0,36.668-29.832,66.5-66.5,66.5
		c-5.645,0-11.254-0.711-16.674-2.114l-0.089-0.022l-61.981,6.904L86.468,189.09z"/>
	<path style="fill:#9BA0A8;" d="M152,82c36.393,0,66,29.607,66,66s-29.607,66-66,66c-5.603,0-11.171-0.706-16.549-2.098
		l-0.178-0.046l-0.183,0.02l-29.15,3.25l-31.879,3.548l12.865-29.383l5.39-12.29l0.183-0.418l-0.195-0.412
		C88.121,167.348,86,157.87,86,148C86,111.607,115.607,82,152,82 M152,81c-37,0-67,30-67,67c0,10.23,2.29,19.93,6.4,28.6
		l-5.39,12.29l-13.56,30.97l33.6-3.74l29.15-3.25c5.37,1.39,11,2.13,16.8,2.13c37,0,67-30,67-67S189,81,152,81L152,81z"/>
</g>
<g>
	<line style="fill:none;stroke:#9BA0A8;stroke-miterlimit:10;" x1="106.5" y1="110.5" x2="194.5" y2="110.5"/>
</g>
<g>
	<line style="fill:none;stroke:#9BA0A8;stroke-miterlimit:10;" x1="107" y1="132.5" x2="195" y2="132.5"/>
</g>
<g>
	<line style="fill:none;stroke:#9BA0A8;stroke-miterlimit:10;" x1="107.5" y1="154.5" x2="195.5" y2="154.5"/>
</g>
<g>
	<line style="fill:none;stroke:#9BA0A8;stroke-miterlimit:10;" x1="108" y1="176.5" x2="196" y2="176.5"/>
</g>
</svg>
