<?xml version="1.0" encoding="iso-8859-1"?>
<!-- Generator: Adobe Illustrator 23.0.3, SVG Export Plug-In . SVG Version: 6.00 Build 0)  -->
<svg version="1.1" id="Layer_1" xmlns="http://www.w3.org/2000/svg" xmlns:xlink="http://www.w3.org/1999/xlink" x="0px" y="0px"
	 viewBox="0 0 300 300" style="enable-background:new 0 0 300 300;" xml:space="preserve">
<g>
	<path style="fill:#FFFFFF;" d="M87,195.5c-11.855,0-21.5-9.645-21.5-21.5v-34c0-8.725,5.467-16.752,13.604-19.975
		c2.505-1.012,5.161-1.525,7.896-1.525h95c3.716,0,7.379,0.977,10.591,2.824c5.515,3.133,9.352,8.479,10.528,14.669l0.132,0.692
		l15.252-8.82l0.107,31.486l0.097,31.488l-16.479-9.575l-0.213,0.543c-3.204,8.19-11.247,13.692-20.015,13.692H87z"/>
	<path d="M182,119c3.629,0,7.205,0.953,10.346,2.76c5.385,3.059,9.133,8.281,10.281,14.327l0.263,1.384l1.22-0.705l13.895-8.036
		l0.104,30.623l0.095,30.616l-15.222-8.844l-1.009-0.586l-0.425,1.086C198.419,189.625,190.563,195,182,195H87
		c-11.579,0-21-9.421-21-21v-34c0-8.522,5.34-16.362,13.295-19.513C81.737,119.5,84.33,119,87,119H182 M182,118H87
		c-2.85,0-5.58,0.55-8.08,1.56C70.79,122.78,65,130.75,65,140v34c0,12.1,9.9,22,22,22h95c9.29,0,17.28-5.83,20.48-14.01l16.73,9.72
		l-0.1-32.36L219,127l-15.39,8.9c-1.22-6.42-5.26-11.88-10.77-15.01C189.64,119.05,185.94,118,182,118L182,118z"/>
</g>
<g>
	<path style="fill:#FFFFFF;" d="M79.432,118.828C79.84,105.628,90.711,95.01,104,95.01c12.77,0,23.427,9.835,24.492,22.49H87
		C84.389,117.5,81.847,117.946,79.432,118.828z"/>
	<path d="M104,95.51c12.327,0,22.644,9.356,23.942,21.49H87c-2.417,0-4.777,0.374-7.035,1.114
		C80.734,105.523,91.227,95.51,104,95.51 M104,94.51c-13.84,0-25.06,11.21-25.08,25.05c2.5-1.01,5.23-1.56,8.08-1.56h42.03
		C128.21,104.89,117.32,94.51,104,94.51L104,94.51z"/>
</g>
<g>
	<path style="fill:#FFFFFF;" d="M192.427,120.091c-3.2-1.697-6.789-2.591-10.427-2.591h-52.414c-0.004-0.167-0.006-0.335-0.006-0.5
		c0-17.369,14.131-31.5,31.5-31.5s31.5,14.131,31.5,31.5C192.58,118.052,192.53,119.07,192.427,120.091z"/>
	<path d="M161.08,86c17.093,0,31,13.907,31,31c0,0.784-0.028,1.548-0.086,2.309c-3.1-1.514-6.526-2.309-9.994-2.309h-51.92
		C130.08,99.907,143.987,86,161.08,86 M161.08,85c-17.67,0-32,14.33-32,32c0,0.33,0.01,0.67,0.02,1H182c3.94,0,7.64,1.05,10.84,2.89
		c0.16-1.28,0.24-2.57,0.24-3.89C193.08,99.33,178.75,85,161.08,85L161.08,85z"/>
</g>
</svg>
