<?xml version="1.0" encoding="utf-8"?>
<!-- Generator: Adobe Illustrator 23.0.3, SVG Export Plug-In . SVG Version: 6.00 Build 0)  -->
<svg version="1.1" id="Layer_1" xmlns="http://www.w3.org/2000/svg" xmlns:xlink="http://www.w3.org/1999/xlink" x="0px" y="0px"
	 viewBox="0 0 720 415" style="enable-background:new 0 0 720 415;" xml:space="preserve">
<style type="text/css">
	.st0{fill:#0049EC;}
</style>
<g>
	<path class="st0" d="M701,207.5c0,92.51-74.99,167.5-167.5,167.5c-35.13,0-67.72-10.81-94.65-29.29
		C416.21,378.51,378.36,400,335.5,400c-38.75,0-73.39-17.56-96.41-45.16C221.13,361.41,201.74,365,181.5,365
		C88.99,365,14,290.01,14,197.5S88.99,30,181.5,30c75.7,0,139.67,50.22,160.42,119.16c11.27,0.57,22.14,2.62,32.43,5.97
		C396.34,88.27,459.28,40,533.5,40C626.01,40,701,114.99,701,207.5z"/>
</g>
</svg>
