<?xml version="1.0" encoding="utf-8"?>
<!-- Generator: Adobe Illustrator 23.0.3, SVG Export Plug-In . SVG Version: 6.00 Build 0)  -->
<svg version="1.1" id="Layer_1" xmlns="http://www.w3.org/2000/svg" xmlns:xlink="http://www.w3.org/1999/xlink" x="0px" y="0px"
	 viewBox="0 0 158 182" style="enable-background:new 0 0 158 182;" xml:space="preserve">
<style type="text/css">
	.st0{fill:#FFC059;}
	.st1{fill:#FFF743;}
</style>
<g>
	<path class="st0" d="M84.14,162.96c-0.88,2.63-1.85,5.51-3.14,7.96c-1.29-2.45-2.26-5.33-3.14-7.96c-1.62-4.82-2.6-9.56-0.86-10.28
		c-3.57,1.49-7.22,3.05-10.43,5.55c0.38-0.29,1.1-9.74,1.31-10.99c0.74-4.39,1.63-8.76,1.73-13.28c0.15-6.58-2.57-15.87,1.91-21.06
		c1.97-2.29,4.84-2.77,7.51-2.81c0.6-0.01,1.26-0.01,1.97,0.01c0.71-0.02,1.37-0.02,1.97-0.01c2.67,0.04,5.54,0.52,7.51,2.81
		c4.48,5.19,1.76,14.48,1.91,21.06c0.1,4.52,0.99,8.89,1.73,13.28c0.21,1.25,0.93,10.7,1.31,10.99c-3.21-2.5-6.86-4.06-10.43-5.55
		C86.74,153.4,85.76,158.14,84.14,162.96z"/>
	<polygon class="st1" points="132,96.5 132,141.5 96.54,130 91.23,130 82,146 72.77,130 68.46,130 33,141.5 33,96.5 53.84,88.61 
		84,16 114.72,89.96 	"/>
</g>
</svg>
