<?xml version="1.0" encoding="utf-8"?>
<!-- Generator: Adobe Illustrator 23.0.3, SVG Export Plug-In . SVG Version: 6.00 Build 0)  -->
<svg version="1.1" id="Layer_1" xmlns="http://www.w3.org/2000/svg" xmlns:xlink="http://www.w3.org/1999/xlink" x="0px" y="0px"
	 viewBox="0 0 1024 768" style="enable-background:new 0 0 1024 768;" xml:space="preserve">
<style type="text/css">
	.st0{fill:#FFFFFF;stroke:#000000;stroke-miterlimit:10;}
</style>
<path class="st0" d="M166.5,339.5c47.02-204.87,81.39-272.73,107-271c46.24,3.12,60.98,232.9,97,232c35.46-0.88,43.52-224.1,86-227
	c45.97-3.14,82.61,255.1,132,253c50.11-2.13,42.53-269.18,112-281c60.76-10.33,157.88,178.44,177,359
	c8.59,81.11,21.84,206.26-54,275c-27.04,24.51-55.68,33.03-260,40c-273.94,9.35-308.74-3.02-336-31
	c-54.01-55.44-67.31-160.76-23-223c29.53-41.48,75.92-51.56,147-67c136.92-29.75,241.86,5.22,264,13
	c63.19,22.21,132.81,46.68,151,109c10.45,35.8,2.9,80.56-23,110c-20.59,23.41-44.73,27.99-171,38c-147.48,11.7-180.93,10.72-224-4
	c-32.99-11.28-85.97-29.38-95-71c-6.86-31.64,14.5-63.93,34-81c26.02-22.77,56.37-24.16,116-26c43.55-1.35,97.45-2.47,161,22
	c36.78,14.16,81.53,31.39,81,53c-0.79,32.51-103.64,56.78-173,55c-3.27-0.08-47.3-1.71-92-27c-19.54-11.06-20.22-15.89-20-18
	c1.54-14.62,59.32-21.14,97-21c37.63,0.14,68.39,6.98,89,13"/>
<path class="st0" d="M461.5,434.5"/>
</svg>
